<?xml version="1.0" encoding="UTF-8"?>
<svg width="200" height="300" viewBox="0 0 200 300" fill="none" xmlns="http://www.w3.org/2000/svg">
  <rect width="200" height="300" fill="white"/>
  <!-- Header -->
  <rect x="20" y="20" width="160" height="40" rx="2" fill="#2C3E50"/>
  <rect x="20" y="70" width="160" height="2" fill="#E5E7EB"/>
  <!-- Company Details -->
  <rect x="20" y="90" width="75" height="15" rx="2" fill="#1ABC9C"/>
  <rect x="20" y="110" width="75" height="10" rx="2" fill="#E5E7EB"/>
  <rect x="20" y="125" width="75" height="10" rx="2" fill="#E5E7EB"/>
  <!-- Client Details -->
  <rect x="105" y="90" width="75" height="15" rx="2" fill="#3498DB"/>
  <rect x="105" y="110" width="75" height="10" rx="2" fill="#E5E7EB"/>
  <rect x="105" y="125" width="75" height="10" rx="2" fill="#E5E7EB"/>
  <!-- Table Header -->
  <rect x="20" y="150" width="160" height="20" rx="2" fill="#F3F4F6"/>
  <!-- Table Rows -->
  <rect x="20" y="180" width="160" height="15" rx="2" fill="#E5E7EB"/>
  <rect x="20" y="205" width="160" height="15" rx="2" fill="#E5E7EB"/>
  <!-- Total Section -->
  <rect x="20" y="240" width="160" height="2" fill="#E5E7EB"/>
  <rect x="20" y="260" width="75" height="20" rx="2" fill="#1ABC9C"/>
  <rect x="105" y="260" width="75" height="20" rx="2" fill="#2C3E50"/>
</svg> 