<?xml version="1.0" encoding="UTF-8"?>
<svg width="200" height="300" viewBox="0 0 200 300" fill="none" xmlns="http://www.w3.org/2000/svg">
  <rect width="200" height="300" fill="white"/>
  <!-- Header -->
  <rect x="0" y="0" width="200" height="60" fill="#2C3E50"/>
  <rect x="20" y="20" width="40" height="20" rx="2" fill="#1ABC9C"/>
  <!-- Company Details -->
  <rect x="20" y="80" width="75" height="15" rx="2" fill="#3498DB"/>
  <rect x="20" y="100" width="75" height="10" rx="2" fill="#E5E7EB"/>
  <rect x="20" y="115" width="75" height="10" rx="2" fill="#E5E7EB"/>
  <!-- Client Details -->
  <rect x="105" y="80" width="75" height="15" rx="2" fill="#1ABC9C"/>
  <rect x="105" y="100" width="75" height="10" rx="2" fill="#E5E7EB"/>
  <rect x="105" y="115" width="75" height="10" rx="2" fill="#E5E7EB"/>
  <!-- Payment Details -->
  <rect x="20" y="145" width="160" height="15" rx="2" fill="#F3F4F6"/>
  <!-- Table Header -->
  <rect x="20" y="170" width="160" height="25" rx="2" fill="#F3F4F6"/>
  <!-- Table Rows -->
  <rect x="20" y="205" width="160" height="20" rx="2" fill="#E5E7EB"/>
  <rect x="20" y="235" width="160" height="20" rx="2" fill="#E5E7EB"/>
  <!-- Total Section -->
  <rect x="20" y="265" width="160" height="2" fill="#E5E7EB"/>
  <rect x="20" y="275" width="75" height="20" rx="2" fill="#1ABC9C"/>
  <rect x="105" y="275" width="75" height="20" rx="2" fill="#2C3E50"/>
</svg> 