<?xml version="1.0" encoding="UTF-8"?>
<svg width="200" height="300" viewBox="0 0 200 300" fill="none" xmlns="http://www.w3.org/2000/svg">
  <rect width="200" height="300" fill="white"/>
  <!-- Header -->
  <rect x="20" y="20" width="160" height="2" fill="#1ABC9C"/>
  <rect x="20" y="40" width="160" height="20" rx="2" fill="#2C3E50"/>
  <!-- Company Details -->
  <rect x="20" y="80" width="160" height="15" rx="2" fill="#E5E7EB"/>
  <rect x="20" y="100" width="160" height="10" rx="2" fill="#E5E7EB"/>
  <!-- Client Details -->
  <rect x="20" y="130" width="160" height="15" rx="2" fill="#E5E7EB"/>
  <rect x="20" y="150" width="160" height="10" rx="2" fill="#E5E7EB"/>
  <!-- Table Header -->
  <rect x="20" y="180" width="160" height="2" fill="#1ABC9C"/>
  <!-- Table Rows -->
  <rect x="20" y="200" width="160" height="10" rx="2" fill="#E5E7EB"/>
  <rect x="20" y="220" width="160" height="10" rx="2" fill="#E5E7EB"/>
  <!-- Total Section -->
  <rect x="20" y="250" width="160" height="2" fill="#1ABC9C"/>
  <rect x="20" y="270" width="75" height="20" rx="2" fill="#2C3E50"/>
  <rect x="105" y="270" width="75" height="20" rx="2" fill="#1ABC9C"/>
</svg> 